<svg version="1.1"
     width="768"
     viewBox="12 0 744 114"
     xmlns="http://www.w3.org/2000/svg">
  <defs>
    <clipPath id="clip">
      <rect x="12" width="372" height="128"/>
    </clipPath>
  </defs>
  <g clip-path="url(#clip)">
    <path d="m764 23c-8 10-8-10-16 0s-8-10-16 0-8-10-16 0-8-10-16 0-8-10-16 0-8-10-16 0-8-10-16 0-8-10-16 0-8-10-16 0-8-10-16 0-8-10-16 0-8-10-16 0-8-10-16 0-8-10-16 0-8-10-16 0-8-10-16 0-8-10-16 0-8-10-16 0-8-10-16 0-8-10-16 0-8-10-16 0-8-10-16 0-8-10-16 0-8-10-16 0-8-10-16 0-8-10-16 0-8-10-16 0-8-10-16 0-8-10-16 0-8-10-16 0-8-10-16 0-8-10-16 0-8-10-16 0-8-10-16 0-8-10-16 0-8-10-16 0-8-10-16 0-8-10-16 0-8-10-16 0-8-10-16 0-8-10-16 0-8-10-16 0-8-10-16 0-8-10-16 0-8-10-16 0-8-10-16 0-8-10-16 0"
          fill="none" stroke="#bbc133" stroke-width="3">
      <animateTransform
              type="translate"
              attributeName="transform"
              from="0 0"
              to="-16 0"
              begin="0s"
              dur="2s"
              fill="remove"
              repeatCount="indefinite"/>
    </path>
    <path d="m764 64c-8 10-8-10-16 0s-8-10-16 0-8-10-16 0-8-10-16 0-8-10-16 0-8-10-16 0-8-10-16 0-8-10-16 0-8-10-16 0-8-10-16 0-8-10-16 0-8-10-16 0-8-10-16 0-8-10-16 0-8-10-16 0-8-10-16 0-8-10-16 0-8-10-16 0-8-10-16 0-8-10-16 0-8-10-16 0-8-10-16 0-8-10-16 0-8-10-16 0-8-10-16 0c-8 9-8-9-16 0s-8-9-16 0c-8 8-8-8-16 0s-8-8-16 0c-8 7-8-7-16 0s-8-7-16 0c-8 6-8-6-16 0s-8-6-16 0c-8 5-8-5-16 0s-8-5-16 0c-8 4-8-4-16 0s-8-4-16 0c-8 3-8-3-16 0s-8-3-16 0c-8 2-8-2-16 0s-8-2-16 0c-8 1-8-1-16 0s-8-1-16 0h-16-16-16-16"
          fill="none" stroke="#7cb32f" stroke-width="3">
      <animateTransform
              attributeName="transform"
              type="translate"
              from="0 0"
              to="-16 0"
              dur="2s"
              begin="0s"
              fill="remove"
              repeatCount="indefinite"/>
    </path>
    <path d="m764 105c-8 10-8-10-16 0s-8-10-16 0-8-10-16 0-8-10-16 0-8-10-16 0-8-10-16 0-8-10-16 0-8-10-16 0-8-10-16 0-8-10-16 0-8-10-16 0-8-10-16 0-8-10-16 0-8-10-16 0-8-10-16 0-8-10-16 0-8-10-16 0-8-10-16 0-8-10-16 0-8-10-16 0-8-10-16 0-8-10-16 0-8-10-16 0-8-10-16 0-8-10-16 0-8-10-16 0-8-10-16 0-8-10-16 0-8-10-16 0-8-10-16 0-8-10-16 0-8-10-16 0-8-10-16 0-8-10-16 0-8-10-16 0-8-10-16 0-8-10-16 0-8-10-16 0-8-10-16 0-8-10-16 0-8-10-16 0-8-10-16 0-8-10-16 0-8-10-16 0-8-10-16 0-8-10-16 0-8-10-16 0"
          fill="none" stroke="#2ca84a" stroke-width="3">
      <animateTransform
              attributeName="transform"
              type="translate"
              from="0 0"
              to="-16 0"
              dur="2s"
              begin="0s"
              fill="remove"
              repeatCount="indefinite"/>
      <animate
              values="
                  m764 105c-8 10-8-10-16 0s-8-10-16 0-8-10-16 0-8-10-16 0-8-10-16 0-8-10-16 0-8-10-16 0-8-10-16 0-8-10-16 0-8-10-16 0-8-10-16 0-8-10-16 0-8-10-16 0-8-10-16 0-8-10-16 0-8-10-16 0-8-10-16 0-8-10-16 0-8-10-16 0-8-10-16 0-8-10-16 0-8-10-16 0-8-10-16 0-8-10-16 0-8-10-16 0-8-10-16 0-8-10-16 0-8-10-16 0-8-10-16 0-8-10-16 0-8-10-16 0-8-10-16 0-8-10-16 0-8-10-16 0-8-10-16 0-8-10-16 0-8-10-16 0-8-10-16 0-8-10-16 0-8-10-16 0-8-10-16 0-8-10-16 0-8-10-16 0-8-10-16 0-8-10-16 0-8-10-16 0-8-10-16 0;
                  m764 105c-8 0-8 0-16 0s-8 0-16 0-8 0-16 0-8 0-16 0-8 0-16 0-8 0-16 0-8 0-16 0-8 0-16 0-8 0-16 0-8 0-16 0-8 0-16 0-8 0-16 0-8 0-16 0-8 0-16 0-8 0-16 0-8 0-16 0-8 0-16 0-8 0-16 0-8 0-16 0-8 0-16 0-8 0-16 0-8 0-16 0-8 0-16 0-8 0-16 0-8 0-16 0-8 0-16 0-8 0-16 0-8 0-16 0-8 0-16 0-8 0-16 0-8 0-16 0-8 0-16 0-8 0-16 0-8 0-16 0-8 0-16 0-8 0-16 0-8 0-16 0-8 0-16 0-8 0-16 0-8 0-16 0-8 0-16 0-8 0-16 0-8 0-16 0-8 0-16 0-8 0-16 0-8 0-16 0-8 0-16 0;
                  m764 105c-8 10-8-10-16 0s-8-10-16 0-8-10-16 0-8-10-16 0-8-10-16 0-8-10-16 0-8-10-16 0-8-10-16 0-8-10-16 0-8-10-16 0-8-10-16 0-8-10-16 0-8-10-16 0-8-10-16 0-8-10-16 0-8-10-16 0-8-10-16 0-8-10-16 0-8-10-16 0-8-10-16 0-8-10-16 0-8-10-16 0-8-10-16 0-8-10-16 0-8-10-16 0-8-10-16 0-8-10-16 0-8-10-16 0-8-10-16 0-8-10-16 0-8-10-16 0-8-10-16 0-8-10-16 0-8-10-16 0-8-10-16 0-8-10-16 0-8-10-16 0-8-10-16 0-8-10-16 0-8-10-16 0-8-10-16 0-8-10-16 0-8-10-16 0-8-10-16 0-8-10-16 0-8-10-16 0-8-10-16 0"
              attributeName="d"
              dur="4s"
              begin="0s"
              fill="remove"
              repeatCount="indefinite"/>
    </path>
  </g>
  <path d="m384 23h372" fill="none" stroke="#bbc133" stroke-opacity="0.23921569" stroke-linecap="round" stroke-width="3"/>
  <path d="m384 64h372" fill="none" stroke="#7cb32f" stroke-opacity="0.23921569" stroke-linecap="round" stroke-width="3"/>
  <path d="m384 105h372" fill="none" stroke="#2ca84a" stroke-opacity="0.23921569" stroke-linecap="round" stroke-width="3"/>
  <circle cx="384" cy="23" r="9" fill="#bbc133"/>
  <circle cx="384" cy="64" r="9" fill="#7cb32f"/>
  <circle cx="384" cy="105" r="9" fill="#2ca84a"/>
</svg>
