<svg width="70" height="70" fill="none" version="1.1" xmlns="http://www.w3.org/2000/svg">
  <path d="m35 70c-4.83 0-9.39-0.901-13.7-2.7-4.24-1.86-7.95-4.35-11.1-7.48-3.13-3.18-5.62-6.89-7.48-11.1-1.81-4.3-2.71-8.86-2.71-13.7 0-4.88 0.901-9.44 2.7-13.7 1.86-4.24 4.35-7.93 7.48-11.1 3.18-3.18 6.89-5.67 11.1-7.48 4.3-1.86 8.86-2.78 13.7-2.78 4.88 0 9.44 0.928 13.7 2.79 4.24 1.8 7.93 4.29 11.1 7.48 3.18 3.13 5.67 6.81 7.48 11.1 1.86 4.24 2.79 8.8 2.79 13.7 0 4.83-0.929 9.39-2.79 13.7-1.8 4.24-4.29 7.96-7.48 11.1-3.13 3.13-6.81 5.62-11.1 7.48-4.24 1.8-8.8 2.7-13.7 2.7zm-22.3-17.1v-35.8a27.7 27.7 0 0 0-4.69 8.27c-1.11 3.02-1.67 6.23-1.67 9.62 0 3.39 0.556 6.63 1.67 9.71a27.9 27.9 0 0 0 4.69 8.19zm4.37-40.2h35.9a27.7 27.7 0 0 0-8.27-4.69c-3.08-1.11-6.31-1.67-9.71-1.67-3.39 0-6.63 0.556-9.7 1.67a27.9 27.9 0 0 0-8.19 4.69zm17.9 30.2 12-23.9h-23.9zm3.18 7.95h12.7v-25.5zm-19.1 0h12.7l-12.7-25.5zm15.9 12.7c3.39 0 6.63-0.556 9.7-1.67 3.08-1.11 5.83-2.68 8.27-4.69h-35.9a27.9 27.9 0 0 0 8.19 4.69c3.08 1.11 6.31 1.67 9.7 1.67zm22.3-10.7a27.9 27.9 0 0 0 4.69-8.19c1.11-3.08 1.67-6.31 1.67-9.71 0-3.39-0.556-6.6-1.67-9.62-1.11-3.08-2.68-5.83-4.69-8.27z" fill="#000"/>
</svg>
