<svg width="24" height="24" viewBox="0 0 24 24" xmlns="http://www.w3.org/2000/svg">
  <defs>
    <linearGradient id="grad4">
      <stop stop-color="#818e1f" offset="0"/>
      <stop stop-color="#8b9822" offset="1"/>
    </linearGradient>
    <linearGradient id="grad5">
      <stop stop-color="#50722d" stop-opacity="0" offset="0"/>
      <stop stop-color="#0e1723" stop-opacity="1" offset="1"/>
    </linearGradient>
    <clipPath id="clip1">
      <path transform="rotate(-45)" d="m0.666 5c-2.04-0.194-4.12 0.519-5.62 2.02-2 2-2.6 5.02-1.52 7.63 1.08 2.61 3.64 4.32 6.47 4.32a2 2 0 0 0 2-2 2 2 0 0 0-2-2c-1.22 0-2.3-0.725-2.77-1.85-0.467-1.13-0.212-2.41 0.65-3.27 0.862-0.862 2.14-1.12 3.27-0.65 1.13 0.467 1.85 1.55 1.85 2.77a2 2 0 0 0 2 2 2 2 0 0 0 2-2c0-2.83-1.71-5.39-4.32-6.47-0.653-0.27-1.33-0.435-2.01-0.5z"/>
      <path transform="rotate(135)" d="m0.666-28.9c-2.04-0.194-4.12 0.519-5.62 2.02-2 2-2.6 5.02-1.52 7.63 1.08 2.61 3.64 4.32 6.47 4.32a2 2 0 0 0 2-2 2 2 0 0 0-2-2c-1.22 0-2.3-0.725-2.77-1.85-0.467-1.13-0.212-2.41 0.65-3.27 0.862-0.862 2.14-1.12 3.27-0.65 1.13 0.467 1.85 1.55 1.85 2.77a2 2 0 0 0 2 2 2 2 0 0 0 2-2c0-2.83-1.71-5.39-4.32-6.47-0.653-0.27-1.33-0.435-2.01-0.5z"/>
    </clipPath>
    <linearGradient id="grad3" href="#grad5" gradientUnits="userSpaceOnUse" x1="7.45" x2="18.5" y1="15.7" y2="15.7"/>
    <linearGradient id="grad2" href="#grad4" gradientUnits="userSpaceOnUse" x1="-4.95" x2="-2.12" y1="7.02" y2="9.85"/>
    <linearGradient id="grad1" href="#grad4" gradientUnits="userSpaceOnUse" x1="-4.95" x2="-2.12" y1="7.02" y2="9.85" gradientTransform="translate(0 -33.9)"/>
  </defs>
  <path fill="url(#grad1)" transform="rotate(135)" d="m0.666-28.9c-2.04-0.194-4.12 0.519-5.62 2.02-2 2-2.6 5.02-1.52 7.63 1.08 2.61 3.64 4.32 6.47 4.32a2 2 0 0 0 2-2 2 2 0 0 0-2-2c-1.22 0-2.3-0.725-2.77-1.85-0.467-1.13-0.212-2.41 0.65-3.27 0.862-0.862 2.14-1.12 3.27-0.65 1.13 0.467 1.85 1.55 1.85 2.77a2 2 0 0 0 2 2 2 2 0 0 0 2-2c0-2.83-1.71-5.39-4.32-6.47-0.653-0.27-1.33-0.435-2.01-0.5z"/>
  <path fill="url(#grad2)" transform="rotate(-45)" d="m0.666 5c-2.04-0.194-4.12 0.519-5.62 2.02-2 2-2.6 5.02-1.52 7.63 1.08 2.61 3.64 4.32 6.47 4.32a2 2 0 0 0 2-2 2 2 0 0 0-2-2c-1.22 0-2.3-0.725-2.77-1.85-0.467-1.13-0.212-2.41 0.65-3.27 0.862-0.862 2.14-1.12 3.27-0.65 1.13 0.467 1.85 1.55 1.85 2.77a2 2 0 0 0 2 2 2 2 0 0 0 2-2c0-2.83-1.71-5.39-4.32-6.47-0.653-0.27-1.33-0.435-2.01-0.5z"/>
  <path fill="url(#grad3)" transform="rotate(180 12 12)" clip-path="url(#clip1)" d="m13 10.2a5.55 5.55 0 0 0-4.85 2.87 5.55 5.55 0 0 0 2.85 0.811 5.55 5.55 0 0 0 2.61-0.662 2 2 0 0 1-0.199 0.236c-1.58 1.58-3.79 2.28-5.94 1.98a5.55 5.55 0 0 0-0.0254 0.311 5.55 5.55 0 0 0 5.55 5.55 5.55 5.55 0 0 0 5.55-5.55 5.55 5.55 0 0 0-5.55-5.55z"/>
  <path fill="url(#grad3)" clip-path="url(#clip1)" d="m13 10.2a5.55 5.55 0 0 0-4.85 2.87 5.55 5.55 0 0 0 2.85 0.811 5.55 5.55 0 0 0 2.61-0.662 2 2 0 0 1-0.199 0.236c-1.58 1.58-3.79 2.28-5.94 1.98a5.55 5.55 0 0 0-0.0254 0.311 5.55 5.55 0 0 0 5.55 5.55 5.55 5.55 0 0 0 5.55-5.55 5.55 5.55 0 0 0-5.55-5.55z"/>
</svg>
