<svg height="24" viewBox="0 0 24 24" width="24" xmlns="http://www.w3.org/2000/svg"
     xmlns:xlink="http://www.w3.org/1999/xlink">
    <linearGradient id="linearGradient51">
        <stop offset="0" stop-color="#50722d" stop-opacity="0"/>
        <stop offset="1" stop-color="#0e1723" stop-opacity=".997"/>
    </linearGradient>
    <linearGradient id="linearGradient82" gradientTransform="matrix(-1.14 0 0 -1.14 25.7 25.7)"
                    gradientUnits="userSpaceOnUse" x1="7.45" x2="18.5" xlink:href="#linearGradient51" y1="15.7"
                    y2="15.7"/>
    <linearGradient id="linearGradient83" gradientUnits="userSpaceOnUse" x1="6.833" x2="19.43"
                    xlink:href="#linearGradient51" y1="16.258" y2="16.258"/>
    <linearGradient id="linearGradient85" gradientTransform="matrix(.805 -.805 .805 .805 -1.66 -1.64)"
                    gradientUnits="userSpaceOnUse" x1="-4.95" x2="-2.12" y1="7.02" y2="9.85">
        <stop offset="0" stop-color="#818e1f"/>
        <stop offset="1" stop-color="#8b9822"/>
    </linearGradient>
    <path d="m2.9 1.85c-1.8 1.49-2.9 3.73-2.9 6.15 0 3.22 1.95 6.13 4.92 7.36s6.41.547 8.68-1.73a2.28 2.28 0 0 0 0-3.22 2.28 2.28 0 0 0 -3.22 0c-.982.982-2.43 1.27-3.72.74-1.29-.534-2.11-1.77-2.11-3.15 0-1.39.821-2.62 2.11-3.15 1.29-.534 2.74-.241 3.72.74a2.28 2.28 0 0 0 3.22 0 2.28 2.28 0 0 0 0-3.22c-2.28-2.28-5.71-2.96-8.68-1.73-.743.308-1.42.72-2.02 1.22zm18.2 20.3c1.8-1.49 2.9-3.73 2.9-6.15 0-3.22-1.95-6.12-4.92-7.36s-6.41-.546-8.68 1.73a2.28 2.28 0 0 0 0 3.22 2.28 2.28 0 0 0 3.22 0c.981-.981 2.44-1.27 3.72-.74 1.29.531 2.11 1.76 2.11 3.15s-.824 2.62-2.11 3.15c-1.29.531-2.74.242-3.72-.739a2.28 2.28 0 0 0 -3.22 0 2.28 2.28 0 0 0 0 3.22c2.28 2.28 5.71 2.96 8.68 1.73.743-.307 1.42-.72 2.03-1.22z"
          fill="url(#linearGradient85)"/>
    <path d="m13.1 9.97a6.32 6.32 0 0 0 -5.52 3.27 6.32 6.32 0 0 0 3.24.923 6.32 6.32 0 0 0 2.97-.753 2.28 2.28 0 0 1 -.217.258c.981-.974 2.44-1.26 3.71-.732 1.12.464 1.89 1.47 2.07 2.64a6.32 6.32 0 0 0 -6.26-5.61zm.06 4.09c-.029.0252-.0596.0487-.0889.0733.0294-.0248.0599-.0481.0889-.0733zm-6.04 1.9c.0327.0034.0651.0082.0978.0112-.0327-.003-.0651-.0077-.0978-.0112zm12.3.131c-.0018 1.39-.826 2.62-2.11 3.15-1.29.531-2.74.241-3.72-.74a2.28 2.28 0 0 0 -3.22 0 2.28 2.28 0 0 0 0 3.22c.151.151.307.294.469.431a6.32 6.32 0 0 0 2.28.443 6.32 6.32 0 0 0 6.32-6.32 6.32 6.32 0 0 0 -.0133-.189z"
          fill="url(#linearGradient83)"/>
    <path d="m10.9 1.49a6.32 6.32 0 0 0 -6.32 6.32 6.32 6.32 0 0 0 .0133.189c.00178-1.39.826-2.62 2.11-3.15 1.29-.531 2.74-.241 3.72.74a2.28 2.28 0 0 0 3.22 0 2.28 2.28 0 0 0 0-3.22c-.164-.164-.336-.318-.511-.464a6.32 6.32 0 0 0 -2.23-.409zm5.9 6.62c.0327.00297.0651.00774.0978.0111-.0327-.00338-.0651-.00814-.0978-.0111zm-12.2.396a6.32 6.32 0 0 0 6.26 5.61 6.32 6.32 0 0 0 5.52-3.27 6.32 6.32 0 0 0 -3.24-.923 6.32 6.32 0 0 0 -2.97.753 2.28 2.28 0 0 1 .217-.258c-.981.974-2.44 1.26-3.71.732-1.12-.464-1.89-1.47-2.07-2.64z"
          fill="url(#linearGradient82)"/>
</svg>
